<?xml version="1.0" encoding="utf-8"?>
<!-- Svg Vector Icons : http://www.sfont.cn -->
<!DOCTYPE svg PUBLIC "-//W3C//DTD SVG 1.1//EN" "http://www.w3.org/Graphics/SVG/1.1/DTD/svg11.dtd">
<svg version="1.1" xmlns="http://www.w3.org/2000/svg" xmlns:xlink="http://www.w3.org/1999/xlink" x="0px" y="0px" viewBox="0 0 1000 1000" enable-background="new 0 0 1000 1000" xml:space="preserve">
<metadata> Svg Vector Icons : http://www.sfont.cn </metadata>
<g><path d="M982.6,95.2c9.9,9.9,9.9,26.1-0.2,36.1L131.3,982.4c-10,10-26.2,10.1-36.1,0.2l-77.7-77.7c-9.9-9.9-9.9-26.1,0.2-36.1L868.7,17.6c10-10,26.2-10.1,36.1-0.2L982.6,95.2z"/><path d="M95.1,17.4c9.9-9.9,26.1-9.9,36.1,0.2l851.2,851.1c10,10,10.1,26.2,0.2,36.1l-77.7,77.7c-9.9,9.9-26.1,9.9-36.1-0.2L17.6,131.3c-10-10-10.1-26.2-0.2-36.1L95.1,17.4z"/></g>
</svg>