<?xml version="1.0" encoding="utf-8"?>
<!-- Svg Vector Icons : http://www.sfont.cn -->
<!DOCTYPE svg PUBLIC "-//W3C//DTD SVG 1.1//EN" "http://www.w3.org/Graphics/SVG/1.1/DTD/svg11.dtd">
<svg version="1.1" xmlns="http://www.w3.org/2000/svg" xmlns:xlink="http://www.w3.org/1999/xlink" x="0px" y="0px" viewBox="0 0 1000 1000" enable-background="new 0 0 1000 1000" xml:space="preserve">
<metadata> Svg Vector Icons : http://www.sfont.cn </metadata>
<g><g><path d="M683.8,10v118.7c0,49.1-19.1,95.2-53.7,129.8L283.5,603.1c-54.8,54.7-85,126.5-88.3,203.1H71.3L255,990l183.8-183.8H317.6c3.2-44,20.9-84.9,52.4-116.5l346.6-344.5c57.9-57.9,89.7-134.7,89.7-216.5V10H683.8z M804.8,806.3c-3.3-76.7-33.6-148.5-88.4-203.4L648.1,535l-86.9,86.4l68.7,68.3c31.6,31.5,49.3,72.5,52.5,116.5H561.3L745,990l183.8-183.8H804.8z"/></g></g>
</svg>