<?xml version="1.0" encoding="utf-8"?>
<!-- Svg Vector Icons : http://www.sfont.cn -->
<!DOCTYPE svg PUBLIC "-//W3C//DTD SVG 1.1//EN" "http://www.w3.org/Graphics/SVG/1.1/DTD/svg11.dtd">
<svg version="1.1" xmlns="http://www.w3.org/2000/svg" xmlns:xlink="http://www.w3.org/1999/xlink" x="0px" y="0px" viewBox="0 0 1000 1000" enable-background="new 0 0 1000 1000" xml:space="preserve">
<metadata> Svg Vector Icons : http://www.sfont.cn </metadata>
<g><path d="M133.2,990l-1-612.1l734.5-1.2l1,612.1L133.2,990z M193.5,439l0.8,489.7l612.1-1L805.7,438L193.5,439z"/><path d="M285.4,438.8L285,211.4c-0.1-54.2,22.4-105,63.4-143.1c40.3-37.6,93.8-58.2,150.6-58.3c0.1,0,0.2,0,0.3,0c56.7,0,110.1,20.5,150.4,57.9c41.1,38,63.7,88.8,63.8,142.9l0.4,227.3l-61.2,0.1l-0.4-227.3c-0.1-37-15.7-71.8-44.1-98.1c-29-26.9-68.2-40.9-109.1-41.6c-41.3,0.1-80,14.9-109,41.9c-28.3,26.4-43.9,61.3-43.9,98.2l0.4,227.4L285.4,438.8z"/></g>
</svg>