<?xml version="1.0" encoding="utf-8"?>
<!-- Svg Vector Icons : http://www.sfont.cn -->
<!DOCTYPE svg PUBLIC "-//W3C//DTD SVG 1.1//EN" "http://www.w3.org/Graphics/SVG/1.1/DTD/svg11.dtd">
<svg version="1.1" xmlns="http://www.w3.org/2000/svg" xmlns:xlink="http://www.w3.org/1999/xlink" x="0px" y="0px" viewBox="0 0 1000 1000" enable-background="new 0 0 1000 1000" xml:space="preserve">
<metadata> Svg Vector Icons : http://www.sfont.cn </metadata>
<g><path d="M500,252.5c59.6,0,107.9,59.6,107.9,133.2c0,73.6-48.3,133.2-107.9,133.2c-59.6,0-107.9-59.6-107.9-133.2C392.1,312.1,440.4,252.5,500,252.5L500,252.5z M900.8,506.3c21.7-23.5,95.5-108,88.8-164.4C981.7,276,740.7,141.3,500,92.4C265.7,134,18.3,276,10.4,341.9c-6.7,56.3,67,140.9,88.8,164.4l5.3,130c270.8-32,534.7-32.9,791.1-0.1L900.8,506.3L900.8,506.3z M894.8,664c0,0,50,243.6-394.8,243.6C55.2,907.6,105.2,664,105.2,664C375.6,631.3,639,630.3,894.8,664z"/></g>
</svg>