<?xml version="1.0" encoding="utf-8"?>
<!-- Svg Vector Icons : http://www.sfont.cn -->
<!DOCTYPE svg PUBLIC "-//W3C//DTD SVG 1.1//EN" "http://www.w3.org/Graphics/SVG/1.1/DTD/svg11.dtd">
<svg version="1.1" xmlns="http://www.w3.org/2000/svg" xmlns:xlink="http://www.w3.org/1999/xlink" x="0px" y="0px" viewBox="0 0 1000 1000" enable-background="new 0 0 1000 1000" xml:space="preserve">
<metadata> Svg Vector Icons : http://www.sfont.cn </metadata>
<g><g transform="translate(0.000000,512.000000) scale(0.100000,-0.100000)"><path d="M3493.5,4981.7c-34.4-21.1-67-57.4-70.8-80.4c-26.8-130.2-36.4-223.9-44-490l-7.7-292.9l57.4-55.5c61.3-63.2,151.2-76.6,241.2-34.4c86.1,38.3,105.3,105.3,105.3,359.8V4618h158.9c120.6,0,166.5,9.6,197.2,34.4c105.3,84.2,112.9,208.6,19.1,302.4l-65.1,65.1h-264.1C3589.2,5020,3547.1,5014.3,3493.5,4981.7z"/><path d="M4728,4989.4c-68.9-36.4-91.9-82.3-91.9-179.9c0-63.2,11.5-91.9,55.5-135.9l55.5-55.5h285.2c239.3,0,289,5.7,323.5,34.4c105.3,84.2,112.9,208.6,19.1,302.4l-65.1,65.1h-264.1C4848.6,5018.1,4766.3,5010.4,4728,4989.4z"/><path d="M5953,4989.4c-68.9-36.4-91.9-82.3-91.9-179.9c0-63.2,11.5-91.9,55.5-135.9l55.5-55.5h285.2c239.3,0,289,5.7,323.5,34.4c105.3,84.2,112.9,208.6,19.1,302.4l-65.1,65.1h-264.1C6073.6,5018.1,5991.3,5010.4,5953,4989.4z"/><path d="M7178,4989.4c-68.9-36.4-91.9-82.3-91.9-179.9c0-63.2,11.5-91.9,55.5-135.9l55.5-55.5h285.2c239.2,0,289,5.7,323.5,34.4c105.3,84.2,112.9,208.6,19.1,302.4l-65.1,65.1h-264.1C7298.6,5018.1,7216.3,5010.4,7178,4989.4z"/><path d="M8378.2,4958.7c-95.7-51.7-105.3-84.2-105.3-379c0-310.1,11.5-346.4,124.4-394.3c88-36.4,191.4-3.8,239.3,74.6c32.5,53.6,38.3,97.6,38.3,327.3v264.1l-65.1,65.1C8540.8,4985.5,8454.7,5000.9,8378.2,4958.7z"/><path d="M2978.6,4426.6c-51.7-21.1-352.2-348.4-388.5-421.1c-23-45.9-23-70.8-5.7-132.1c28.7-91.9,99.5-141.6,202.9-141.6c74.6,0,88.1,9.6,254.6,189.5c204.8,218.2,237.3,285.2,189.5,396.2C3191,4417.1,3076.2,4466.8,2978.6,4426.6z"/><path d="M8378.2,3733.7c-95.7-51.7-105.3-84.2-105.3-382.8c0-264.1,1.9-283.3,44-331.1c88.1-101.4,254.6-93.8,319.6,15.3c32.5,53.6,38.3,97.6,38.3,327.3v264.1l-65.1,65.1C8540.8,3760.6,8454.7,3775.9,8378.2,3733.7z"/><path d="M3428.4,3528.9l-55.5-55.5v-290.9v-290.9l55.5-55.5c91.9-90,248.8-70.8,313.9,40.2c26.8,42.1,32.5,105.3,32.5,306.3c0,147.4-9.6,268-21.1,292.8c-36.4,72.7-97.6,109.1-185.7,109.1C3501.1,3584.5,3474.3,3573,3428.4,3528.9z"/><path d="M2134.5,3500.2c-23-17.2-114.8-112.9-204.8-212.5c-157-172.3-164.6-185.7-164.6-269.9c0-120.6,74.6-199.1,195.2-199.1c78.5,0,90,7.7,243.1,166.5c189.5,197.1,231.6,262.2,231.6,344.5C2435,3467.7,2241.7,3576.8,2134.5,3500.2z"/><path d="M1388,2503l-63.2-63.2v-260.3c0-300.5,19.1-361.8,128.2-405.8c51.7-23,80.4-24.9,130.2-7.7c105.3,34.4,132.1,82.3,143.6,246.9l9.6,145.5l254.6,9.6c250.7,9.6,256.5,9.6,302.4,63.2c80.4,93.8,47.9,268-59.3,315.8c-36.4,17.2-164.6,23-419.2,21.1l-365.6-3.8L1388,2503z"/><path d="M2858,2543.2c-111-61.3-132.1-227.8-42.1-319.6l55.5-55.5h290.9h290.9l55.5,55.5c91.9,93.8,65.1,271.8-49.8,323.5C3388.2,2579.6,2919.2,2575.7,2858,2543.2z"/><path d="M8378.2,2508.7c-95.7-51.7-105.3-84.2-105.3-382.8c0-264.1,1.9-283.3,44-331.1c88.1-101.4,254.6-93.8,319.6,15.3c32.5,53.6,38.3,97.6,38.3,327.3v264.1l-65.1,65.1C8540.8,2535.5,8454.7,2550.9,8378.2,2508.7z"/><path d="M1389.9,1279.9l-65.1-65.1V954.5c0-300.5,19.1-361.8,128.2-405.8c82.3-36.4,178-9.6,235.4,63.2c34.4,44,38.3,76.6,38.3,313.9c0,289-15.3,348.4-97.6,392.4C1537.3,1364.1,1462.6,1352.7,1389.9,1279.9z"/><path d="M8378.2,1283.8c-95.7-51.7-105.3-84.2-105.3-382.8c0-264.1,1.9-283.3,44-331.1c88.1-101.4,254.6-93.8,319.6,15.3c32.5,53.6,38.3,97.6,38.3,327.3v264.1l-65.1,65.1C8540.8,1310.5,8454.7,1325.9,8378.2,1283.8z"/><path d="M1389.9,54.9l-65.1-65.1v-260.3c0-300.5,19.1-361.7,128.2-405.8c82.3-36.4,178-9.6,235.4,63.2c34.4,44,38.3,76.6,38.3,313.9c0,289-15.3,348.4-97.6,392.4C1537.3,139.1,1462.6,127.7,1389.9,54.9z"/><path d="M8378.2,58.7c-95.7-51.7-105.3-84.2-105.3-382.8c0-264.1,1.9-283.3,44-331.1c88.1-101.4,254.6-93.8,319.6,15.3c32.5,53.6,38.3,97.6,38.3,327.3v264.1l-65.1,65.1C8540.8,85.6,8454.7,100.9,8378.2,58.7z"/><path d="M1389.9-1170.1l-65.1-65.1v-264.1c0-227.8,5.7-273.7,36.4-325.4c72.7-120.6,237.3-126.3,327.3-11.5c34.4,42.1,38.3,78.5,38.3,312c0,289-15.3,348.4-97.6,392.4C1537.3-1085.9,1462.6-1097.3,1389.9-1170.1z"/><path d="M8378.2-1166.3c-95.7-51.7-105.3-84.2-105.3-379c0-310.1,11.5-346.4,124.4-394.3c88-36.4,191.4-3.8,239.3,74.6c32.5,53.6,38.3,97.6,38.3,327.3v264.1l-65.1,65.1C8540.8-1139.5,8454.7-1124.1,8378.2-1166.3z"/><path d="M1389.9-2395.1l-65.1-65.1v-260.3c0-300.5,19.1-361.7,128.2-405.8c82.3-36.4,178-9.6,235.4,63.2c34.4,44,38.3,76.6,38.3,313.9c0,289-15.3,348.4-97.6,392.4C1537.3-2310.9,1462.6-2322.3,1389.9-2395.1z"/><path d="M8378.2-2391.2c-95.7-51.7-105.3-84.2-105.3-382.8c0-264.1,1.9-283.3,44-331.1c88.1-101.4,254.6-93.8,319.6,15.3c32.5,53.6,38.3,97.6,38.3,327.3v264.1l-65.1,65.1C8540.8-2364.5,8454.7-2349.1,8378.2-2391.2z"/><path d="M1389.9-3620.1l-65.1-65.1v-260.3c0-300.5,19.1-361.7,128.2-405.8c82.3-36.4,178-9.6,235.4,63.2c34.4,44,38.3,76.6,38.3,313.9c0,289-15.3,348.4-97.6,392.4C1537.3-3535.9,1462.6-3547.3,1389.9-3620.1z"/><path d="M8378.2-3616.2c-95.7-51.7-105.3-84.2-105.3-380.9c0-254.6,3.8-285.2,40.2-331.1l38.3-49.8h-181.8c-164.6,0-185.7-3.8-237.3-47.9c-72.7-61.3-91.9-137.8-53.6-225.9c44-109.1,103.3-128.2,405.8-128.2h260.3l65.1,65.1c93.8,93.8,86.1,218.2-19.1,302.4c-21,19.1-28.7,34.5-15.3,34.5c13.4,0,40.2,28.7,61.3,63.2c32.5,53.6,38.3,95.7,38.3,325.4v266.1l-65.1,65.1C8540.8-3589.4,8454.7-3574.1,8378.2-3616.2z"/><path d="M1807.2-4425.9c-72.7-61.3-91.9-137.8-53.6-225.9c44-109.1,103.4-128.2,405.8-128.2h260.3l65.1,65.1c72.7,72.7,84.2,147.4,38.3,239.3c-44,82.3-103.4,97.6-394.3,97.6C1872.3-4378,1860.8-4380,1807.2-4425.9z"/><path d="M3032.2-4425.9c-72.7-61.3-91.9-137.8-53.6-225.9c44-109.1,103.4-128.2,405.8-128.2h260.3l65.1,65.1c72.7,72.7,84.2,147.4,38.3,239.3c-44,82.3-103.4,97.6-394.3,97.6C3097.3-4378,3085.8-4380,3032.2-4425.9z"/><path d="M4257.2-4425.9c-72.7-61.3-91.9-137.8-53.6-225.9c44-109.1,103.4-128.2,405.8-128.2h260.3l65.1,65.1c93.8,93.8,86.1,218.2-19.1,302.4c-34.5,28.7-84.2,34.5-321.6,34.5C4322.3-4378,4312.7-4380,4257.2-4425.9z"/><path d="M5482.2-4425.9c-72.7-61.3-91.9-137.8-53.6-225.9c44-109.1,103.3-128.2,405.8-128.2h260.3l65.1,65.1c72.8,72.7,84.2,147.4,38.3,239.3c-44,82.3-103.3,97.6-394.3,97.6C5547.2-4378,5535.8-4380,5482.2-4425.9z"/><path d="M6707.2-4425.9c-72.7-61.3-91.9-137.8-53.6-225.9c44-109.1,103.3-128.2,405.8-128.2h260.3l65.1,65.1c72.8,72.7,84.2,147.4,38.3,239.3c-44,82.3-103.3,97.6-394.3,97.6C6772.2-4378,6760.8-4380,6707.2-4425.9z"/></g></g>
<line x0="0" y0="0" x1="1000" y1="1000" style="stroke:rgb(255,99,99);stroke-width:100"/>
</svg>