<?xml version="1.0" encoding="utf-8"?>
<!-- Svg Vector Icons : http://www.sfont.cn -->
<!DOCTYPE svg PUBLIC "-//W3C//DTD SVG 1.1//EN" "http://www.w3.org/Graphics/SVG/1.1/DTD/svg11.dtd">
<svg version="1.1" xmlns="http://www.w3.org/2000/svg" xmlns:xlink="http://www.w3.org/1999/xlink" x="0px" y="0px" viewBox="0 0 1000 1000" enable-background="new 0 0 1000 1000" xml:space="preserve">
<metadata> Svg Vector Icons : http://www.sfont.cn </metadata>
<g><path d="M500,165.9C277.3,165.9,87.1,304.5,10,500c77.1,195.5,267.3,334.1,490,334.1c222.7,0,412.9-138.5,490-334.1C912.9,304.5,722.7,165.9,500,165.9z M500,722.7c-122.9,0-222.7-99.8-222.7-222.7S377.1,277.3,500,277.3c122.9,0,222.7,99.8,222.7,222.7S622.9,722.7,500,722.7z M500,366.4c-74,0-133.6,59.7-133.6,133.6c0,73.9,59.7,133.6,133.6,133.6S633.6,574,633.6,500C633.6,426.1,573.9,366.4,500,366.4z"/></g>
</svg>